<svg width="2400" height="764" viewBox="0 0 2400 764" fill="none" opacity="0.1" xmlns="http://www.w3.org/2000/svg">
<g clip-path="url(#clip0_1466_9554)">
<g style="mix-blend-mode:soft-light">
<path d="M552.325 30.1164V43.3252M552.325 43.3252V56.5339M552.325 43.3252H539.117M552.325 43.3252H565.534M552.325 382.35V395.558M552.325 395.558V408.767M552.325 395.558H539.117M552.325 395.558H565.534M552.325 734.582V747.791M552.325 747.791V761M552.325 747.791H539.117M552.325 747.791H565.534M904.559 30.1164V43.3252M904.559 43.3252V56.5339M904.559 43.3252H891.35M904.559 43.3252H917.767M904.559 382.35V395.558M904.559 395.558V408.767M904.559 395.558H891.35M904.559 395.558H917.767M904.559 734.582V747.791M904.559 747.791V761M904.559 747.791H891.35M904.559 747.791H917.767M1256.79 30.1164V43.3252M1256.79 43.3252V56.5339M1256.79 43.3252H1243.58M1256.79 43.3252H1270M1256.79 382.35V395.558M1256.79 395.558V408.767M1256.79 395.558H1243.58M1256.79 395.558H1270M1256.79 734.582V747.791M1256.79 747.791V761M1256.79 747.791H1243.58M1256.79 747.791H1270M1609.02 30.1164V43.3252M1609.02 43.3252V56.5339M1609.02 43.3252H1595.82M1609.02 43.3252H1622.23M1609.02 382.35V395.558M1609.02 395.558V408.767M1609.02 395.558H1595.82M1609.02 395.558H1622.23M1609.02 734.582V747.791M1609.02 747.791V761M1609.02 747.791H1595.82M1609.02 747.791H1622.23M1961.26 30.1164V43.3252M1961.26 43.3252V56.5339M1961.26 43.3252H1948.05M1961.26 43.3252H1974.47M1961.26 382.35V395.558M1961.26 395.558V408.767M1961.26 395.558H1948.05M1961.26 395.558H1974.47M1961.26 734.582V747.791M1961.26 747.791V761M1961.26 747.791H1948.05M1961.26 747.791H1974.47M2313.49 30.1164V43.3252M2313.49 43.3252V56.5339M2313.49 43.3252H2300.28M2313.49 43.3252H2326.7M2313.49 382.35V395.558M2313.49 395.558V408.767M2313.49 395.558H2300.28M2313.49 395.558H2326.7M2313.49 734.582V747.791M2313.49 747.791V761M2313.49 747.791H2300.28M2313.49 747.791H2326.7M552.325 -146V-132.791M552.325 -132.791V-119.583M552.325 -132.791H539.117M552.325 -132.791H565.534M552.325 206.233V219.442M552.325 219.442V232.651M552.325 219.442H539.117M552.325 219.442H565.534M552.325 558.466V571.675M552.325 571.675V584.883M552.325 571.675H539.117M552.325 571.675H565.534M904.559 -146V-132.791M904.559 -132.791V-119.583M904.559 -132.791H891.35M904.559 -132.791H917.767M904.559 206.233V219.442M904.559 219.442V232.651M904.559 219.442H891.35M904.559 219.442H917.767M904.559 558.466V571.675M904.559 571.675V584.883M904.559 571.675H891.35M904.559 571.675H917.767M1256.79 -146V-132.791M1256.79 -132.791V-119.583M1256.79 -132.791H1243.58M1256.79 -132.791H1270M1256.79 206.233V219.442M1256.79 219.442V232.651M1256.79 219.442H1243.58M1256.79 219.442H1270M1256.79 558.466V571.675M1256.79 571.675V584.883M1256.79 571.675H1243.58M1256.79 571.675H1270M1609.02 -146V-132.791M1609.02 -132.791V-119.583M1609.02 -132.791H1595.82M1609.02 -132.791H1622.23M1609.02 206.233V219.442M1609.02 219.442V232.651M1609.02 219.442H1595.82M1609.02 219.442H1622.23M1609.02 558.466V571.675M1609.02 571.675V584.883M1609.02 571.675H1595.82M1609.02 571.675H1622.23M1961.26 -146V-132.791M1961.26 -132.791V-119.583M1961.26 -132.791H1948.05M1961.26 -132.791H1974.47M1961.26 206.233V219.442M1961.26 219.442V232.651M1961.26 219.442H1948.05M1961.26 219.442H1974.47M1961.26 558.466V571.675M1961.26 571.675V584.883M1961.26 571.675H1948.05M1961.26 571.675H1974.47M2313.49 -146V-132.791M2313.49 -132.791V-119.583M2313.49 -132.791H2300.28M2313.49 -132.791H2326.7M2313.49 206.233V219.442M2313.49 219.442V232.651M2313.49 219.442H2300.28M2313.49 219.442H2326.7M2313.49 558.466V571.675M2313.49 571.675V584.883M2313.49 571.675H2300.28M2313.49 571.675H2326.7M376.209 30.1164V43.3252M376.209 43.3252V56.5339M376.209 43.3252H363M376.209 43.3252H389.417M376.209 382.35V395.558M376.209 395.558V408.767M376.209 395.558H363M376.209 395.558H389.417M376.209 734.582V747.791M376.209 747.791V761M376.209 747.791H363M376.209 747.791H389.417M728.442 30.1164V43.3252M728.442 43.3252V56.5339M728.442 43.3252H715.233M728.442 43.3252H741.651M728.442 382.35V395.558M728.442 395.558V408.767M728.442 395.558H715.233M728.442 395.558H741.651M728.442 734.582V747.791M728.442 747.791V761M728.442 747.791H715.233M728.442 747.791H741.651M1080.68 30.1164V43.3252M1080.68 43.3252V56.5339M1080.68 43.3252H1067.47M1080.68 43.3252H1093.88M1080.68 382.35V395.558M1080.68 395.558V408.767M1080.68 395.558H1067.47M1080.68 395.558H1093.88M1080.68 734.582V747.791M1080.68 747.791V761M1080.68 747.791H1067.47M1080.68 747.791H1093.88M1432.91 30.1164V43.3252M1432.91 43.3252V56.5339M1432.91 43.3252H1419.7M1432.91 43.3252H1446.12M1432.91 382.35V395.558M1432.91 395.558V408.767M1432.91 395.558H1419.7M1432.91 395.558H1446.12M1432.91 734.582V747.791M1432.91 747.791V761M1432.91 747.791H1419.7M1432.91 747.791H1446.12M1785.14 30.1164V43.3252M1785.14 43.3252V56.5339M1785.14 43.3252H1771.93M1785.14 43.3252H1798.35M1785.14 382.35V395.558M1785.14 395.558V408.767M1785.14 395.558H1771.93M1785.14 395.558H1798.35M1785.14 734.582V747.791M1785.14 747.791V761M1785.14 747.791H1771.93M1785.14 747.791H1798.35M2137.37 30.1164V43.3252M2137.37 43.3252V56.5339M2137.37 43.3252H2124.17M2137.37 43.3252H2150.58M2137.37 382.35V395.558M2137.37 395.558V408.767M2137.37 395.558H2124.17M2137.37 395.558H2150.58M2137.37 734.582V747.791M2137.37 747.791V761M2137.37 747.791H2124.17M2137.37 747.791H2150.58M376.209 -146V-132.791M376.209 -132.791V-119.582M376.209 -132.791H363M376.209 -132.791H389.417M376.209 206.233V219.442M376.209 219.442V232.651M376.209 219.442H363M376.209 219.442H389.417M376.209 558.466V571.675M376.209 571.675V584.883M376.209 571.675H363M376.209 571.675H389.417M728.442 -146V-132.791M728.442 -132.791V-119.583M728.442 -132.791H715.233M728.442 -132.791H741.651M728.442 206.233V219.442M728.442 219.442V232.651M728.442 219.442H715.233M728.442 219.442H741.651M728.442 558.466V571.675M728.442 571.675V584.883M728.442 571.675H715.233M728.442 571.675H741.651M1080.68 -146V-132.791M1080.68 -132.791V-119.583M1080.68 -132.791H1067.47M1080.68 -132.791H1093.88M1080.68 206.233V219.442M1080.68 219.442V232.651M1080.68 219.442H1067.47M1080.68 219.442H1093.88M1080.68 558.466V571.675M1080.68 571.675V584.883M1080.68 571.675H1067.47M1080.68 571.675H1093.88M1432.91 -146V-132.791M1432.91 -132.791V-119.583M1432.91 -132.791H1419.7M1432.91 -132.791H1446.12M1432.91 206.233V219.442M1432.91 219.442V232.651M1432.91 219.442H1419.7M1432.91 219.442H1446.12M1432.91 558.466V571.675M1432.91 571.675V584.883M1432.91 571.675H1419.7M1432.91 571.675H1446.12M1785.14 -146V-132.791M1785.14 -132.791V-119.583M1785.14 -132.791H1771.93M1785.14 -132.791H1798.35M1785.14 206.233V219.442M1785.14 219.442V232.651M1785.14 219.442H1771.93M1785.14 219.442H1798.35M1785.14 558.466V571.675M1785.14 571.675V584.883M1785.14 571.675H1771.93M1785.14 571.675H1798.35M2137.37 -146V-132.791M2137.37 -132.791V-119.583M2137.37 -132.791H2124.17M2137.37 -132.791H2150.58M2137.37 206.233V219.442M2137.37 219.442V232.651M2137.37 219.442H2124.17M2137.37 219.442H2150.58M2137.37 558.466V571.675M2137.37 571.675V584.883M2137.37 571.675H2124.17M2137.37 571.675H2150.58" stroke="url(#paint0_radial_1466_9554)" stroke-width="0.8"/>
</g>
<g style="mix-blend-mode:soft-light" opacity="0.48">
<path d="M420.238 -132.791H376.209V-88.7619M420.238 -132.791V-88.7619M420.238 -132.791H464.267M420.238 -88.7619H376.209M420.238 -88.7619V-44.7327M420.238 -88.7619H464.267M376.209 -88.7619V-44.7327M420.238 -44.7327H376.209M420.238 -44.7327V-0.703609M420.238 -44.7327H464.267M376.209 -44.7327V-0.703609M420.238 -0.703609H376.209M420.238 -0.703609V43.3255M420.238 -0.703609H464.267M376.209 -0.703609V43.3255M420.238 43.3255H376.209M420.238 43.3255V87.3547M420.238 43.3255H464.267M376.209 43.3255V87.3547M420.238 87.3547H376.209M420.238 87.3547V131.384M420.238 87.3547H464.267M376.209 87.3547V131.384M420.238 131.384H376.209M420.238 131.384V175.413M420.238 131.384H464.267M376.209 131.384V175.413M420.238 175.413H376.209M420.238 175.413V219.442M420.238 175.413H464.267M376.209 175.413V219.442M420.238 219.442H376.209M420.238 219.442V263.471M420.238 219.442H464.267M376.209 219.442V263.471M420.238 263.471H376.209M420.238 263.471V307.5M420.238 263.471H464.267M376.209 263.471V307.5M420.238 307.5H376.209M420.238 307.5V351.529M420.238 307.5H464.267M376.209 307.5V351.529M420.238 351.529H376.209M420.238 351.529V395.559M420.238 351.529H464.267M376.209 351.529V395.559M420.238 395.559H376.209M420.238 395.559V439.588M420.238 395.559H464.267M376.209 395.559V439.588M420.238 439.588H376.209M420.238 439.588V483.617M420.238 439.588H464.267M376.209 439.588V483.617M420.238 483.617H376.209M420.238 483.617V527.646M420.238 483.617H464.267M376.209 483.617V527.646M420.238 527.646H376.209M420.238 527.646V571.675M420.238 527.646H464.267M376.209 527.646V571.675M420.238 571.675H376.209M420.238 571.675V615.704M420.238 571.675H464.267M376.209 571.675V615.704M420.238 615.704H376.209M420.238 615.704V659.733M420.238 615.704H464.267M376.209 615.704V659.733M420.238 659.733H376.209M420.238 659.733V703.763M420.238 659.733H464.267M376.209 659.733V703.763M420.238 703.763H376.209M420.238 703.763V747.792M420.238 703.763H464.267M376.209 703.763V747.792H420.238M420.238 747.792H464.267M464.267 -132.791V-88.7619M464.267 -132.791H508.296M464.267 -88.7619V-44.7327M464.267 -88.7619H508.296M464.267 -44.7327V-0.703609M464.267 -44.7327H508.296M464.267 -0.703609V43.3255M464.267 -0.703609H508.296M464.267 43.3255V87.3547M464.267 43.3255H508.296M464.267 87.3547V131.384M464.267 87.3547H508.296M464.267 131.384V175.413M464.267 131.384H508.296M464.267 175.413V219.442M464.267 175.413H508.296M464.267 219.442V263.471M464.267 219.442H508.296M464.267 263.471V307.5M464.267 263.471H508.296M464.267 307.5V351.529M464.267 307.5H508.296M464.267 351.529V395.559M464.267 351.529H508.296M464.267 395.559V439.588M464.267 395.559H508.296M464.267 439.588V483.617M464.267 439.588H508.296M464.267 483.617V527.646M464.267 483.617H508.296M464.267 527.646V571.675M464.267 527.646H508.296M464.267 571.675V615.704M464.267 571.675H508.296M464.267 615.704V659.733M464.267 615.704H508.296M464.267 659.733V703.763M464.267 659.733H508.296M464.267 703.763V747.792M464.267 703.763H508.296M464.267 747.792H508.296M508.296 -132.791V-88.7619M508.296 -132.791H552.326M508.296 -88.7619V-44.7327M508.296 -88.7619H552.326M508.296 -44.7327V-0.703609M508.296 -44.7327H552.326M508.296 -0.703609V43.3255M508.296 -0.703609H552.326M508.296 43.3255V87.3547M508.296 43.3255H552.326M508.296 87.3547V131.384M508.296 87.3547H552.326M508.296 131.384V175.413M508.296 131.384H552.326M508.296 175.413V219.442M508.296 175.413H552.326M508.296 219.442V263.471M508.296 219.442H552.326M508.296 263.471V307.5M508.296 263.471H552.326M508.296 307.5V351.529M508.296 307.5H552.326M508.296 351.529V395.559M508.296 351.529H552.326M508.296 395.559V439.588M508.296 395.559H552.326M508.296 439.588V483.617M508.296 439.588H552.326M508.296 483.617V527.646M508.296 483.617H552.326M508.296 527.646V571.675M508.296 527.646H552.326M508.296 571.675V615.704M508.296 571.675H552.326M508.296 615.704V659.733M508.296 615.704H552.326M508.296 659.733V703.763M508.296 659.733H552.326M508.296 703.763V747.792M508.296 703.763H552.326M508.296 747.792H552.326M552.326 -132.791V-88.7619M552.326 -132.791H596.355M552.326 -88.7619V-44.7327M552.326 -88.7619H596.355M552.326 -44.7327V-0.703609M552.326 -44.7327H596.355M552.326 -0.703609V43.3255M552.326 -0.703609H596.355M552.326 43.3255V87.3547M552.326 43.3255H596.355M552.326 87.3547V131.384M552.326 87.3547H596.355M552.326 131.384V175.413M552.326 131.384H596.355M552.326 175.413V219.442M552.326 175.413H596.355M552.326 219.442V263.471M552.326 219.442H596.355M552.326 263.471V307.5M552.326 263.471H596.355M552.326 307.5V351.529M552.326 307.5H596.355M552.326 351.529V395.559M552.326 351.529H596.355M552.326 395.559V439.588M552.326 395.559H596.355M552.326 439.588V483.617M552.326 439.588H596.355M552.326 483.617V527.646M552.326 483.617H596.355M552.326 527.646V571.675M552.326 527.646H596.355M552.326 571.675V615.704M552.326 571.675H596.355M552.326 615.704V659.733M552.326 615.704H596.355M552.326 659.733V703.763M552.326 659.733H596.355M552.326 703.763V747.792M552.326 703.763H596.355M552.326 747.792H596.355M596.355 -132.791V-88.7619M596.355 -132.791H640.384M596.355 -88.7619V-44.7327M596.355 -88.7619H640.384M596.355 -44.7327V-0.703609M596.355 -44.7327H640.384M596.355 -0.703609V43.3255M596.355 -0.703609H640.384M596.355 43.3255V87.3547M596.355 43.3255H640.384M596.355 87.3547V131.384M596.355 87.3547H640.384M596.355 131.384V175.413M596.355 131.384H640.384M596.355 175.413V219.442M596.355 175.413H640.384M596.355 219.442V263.471M596.355 219.442H640.384M596.355 263.471V307.5M596.355 263.471H640.384M596.355 307.5V351.529M596.355 307.5H640.384M596.355 351.529V395.559M596.355 351.529H640.384M596.355 395.559V439.588M596.355 395.559H640.384M596.355 439.588V483.617M596.355 439.588H640.384M596.355 483.617V527.646M596.355 483.617H640.384M596.355 527.646V571.675M596.355 527.646H640.384M596.355 571.675V615.704M596.355 571.675H640.384M596.355 615.704V659.733M596.355 615.704H640.384M596.355 659.733V703.763M596.355 659.733H640.384M596.355 703.763V747.792M596.355 703.763H640.384M596.355 747.792H640.384M640.384 -132.791V-88.7619M640.384 -132.791H684.413M640.384 -88.7619V-44.7327M640.384 -88.7619H684.413M640.384 -44.7327V-0.703609M640.384 -44.7327H684.413M640.384 -0.703609V43.3255M640.384 -0.703609H684.413M640.384 43.3255V87.3547M640.384 43.3255H684.413M640.384 87.3547V131.384M640.384 87.3547H684.413M640.384 131.384V175.413M640.384 131.384H684.413M640.384 175.413V219.442M640.384 175.413H684.413M640.384 219.442V263.471M640.384 219.442H684.413M640.384 263.471V307.5M640.384 263.471H684.413M640.384 307.5V351.529M640.384 307.5H684.413M640.384 351.529V395.559M640.384 351.529H684.413M640.384 395.559V439.588M640.384 395.559H684.413M640.384 439.588V483.617M640.384 439.588H684.413M640.384 483.617V527.646M640.384 483.617H684.413M640.384 527.646V571.675M640.384 527.646H684.413M640.384 571.675V615.704M640.384 571.675H684.413M640.384 615.704V659.733M640.384 615.704H684.413M640.384 659.733V703.763M640.384 659.733H684.413M640.384 703.763V747.792M640.384 703.763H684.413M640.384 747.792H684.413M684.413 -132.791V-88.7619M684.413 -132.791H728.442M684.413 -88.7619V-44.7327M684.413 -88.7619H728.442M684.413 -44.7327V-0.703609M684.413 -44.7327H728.442M684.413 -0.703609V43.3255M684.413 -0.703609H728.442M684.413 43.3255V87.3547M684.413 43.3255H728.442M684.413 87.3547V131.384M684.413 87.3547H728.442M684.413 131.384V175.413M684.413 131.384H728.442M684.413 175.413V219.442M684.413 175.413H728.442M684.413 219.442V263.471M684.413 219.442H728.442M684.413 263.471V307.5M684.413 263.471H728.442M684.413 307.5V351.529M684.413 307.5H728.442M684.413 351.529V395.559M684.413 351.529H728.442M684.413 395.559V439.588M684.413 395.559H728.442M684.413 439.588V483.617M684.413 439.588H728.442M684.413 483.617V527.646M684.413 483.617H728.442M684.413 527.646V571.675M684.413 527.646H728.442M684.413 571.675V615.704M684.413 571.675H728.442M684.413 615.704V659.733M684.413 615.704H728.442M684.413 659.733V703.763M684.413 659.733H728.442M684.413 703.763V747.792M684.413 703.763H728.442M684.413 747.792H728.442M728.442 -132.791V-88.7619M728.442 -132.791H772.471M728.442 -88.7619V-44.7327M728.442 -88.7619H772.471M728.442 -44.7327V-0.703609M728.442 -44.7327H772.471M728.442 -0.703609V43.3255M728.442 -0.703609H772.471M728.442 43.3255V87.3547M728.442 43.3255H772.471M728.442 87.3547V131.384M728.442 87.3547H772.471M728.442 131.384V175.413M728.442 131.384H772.471M728.442 175.413V219.442M728.442 175.413H772.471M728.442 219.442V263.471M728.442 219.442H772.471M728.442 263.471V307.5M728.442 263.471H772.471M728.442 307.5V351.529M728.442 307.5H772.471M728.442 351.529V395.559M728.442 351.529H772.471M728.442 395.559V439.588M728.442 395.559H772.471M728.442 439.588V483.617M728.442 439.588H772.471M728.442 483.617V527.646M728.442 483.617H772.471M728.442 527.646V571.675M728.442 527.646H772.471M728.442 571.675V615.704M728.442 571.675H772.471M728.442 615.704V659.733M728.442 615.704H772.471M728.442 659.733V703.763M728.442 659.733H772.471M728.442 703.763V747.792M728.442 703.763H772.471M728.442 747.792H772.471M772.471 -132.791V-88.7619M772.471 -132.791H816.5M772.471 -88.7619V-44.7327M772.471 -88.7619H816.5M772.471 -44.7327V-0.703609M772.471 -44.7327H816.5M772.471 -0.703609V43.3255M772.471 -0.703609H816.5M772.471 43.3255V87.3547M772.471 43.3255H816.5M772.471 87.3547V131.384M772.471 87.3547H816.5M772.471 131.384V175.413M772.471 131.384H816.5M772.471 175.413V219.442M772.471 175.413H816.5M772.471 219.442V263.471M772.471 219.442H816.5M772.471 263.471V307.5M772.471 263.471H816.5M772.471 307.5V351.529M772.471 307.5H816.5M772.471 351.529V395.559M772.471 351.529H816.5M772.471 395.559V439.588M772.471 395.559H816.5M772.471 439.588V483.617M772.471 439.588H816.5M772.471 483.617V527.646M772.471 483.617H816.5M772.471 527.646V571.675M772.471 527.646H816.5M772.471 571.675V615.704M772.471 571.675H816.5M772.471 615.704V659.733M772.471 615.704H816.5M772.471 659.733V703.763M772.471 659.733H816.5M772.471 703.763V747.792M772.471 703.763H816.5M772.471 747.792H816.5M816.5 -132.791V-88.7619M816.5 -132.791H860.53M816.5 -88.7619V-44.7327M816.5 -88.7619H860.53M816.5 -44.7327V-0.703609M816.5 -44.7327H860.53M816.5 -0.703609V43.3255M816.5 -0.703609H860.53M816.5 43.3255V87.3547M816.5 43.3255H860.53M816.5 87.3547V131.384M816.5 87.3547H860.53M816.5 131.384V175.413M816.5 131.384H860.53M816.5 175.413V219.442M816.5 175.413H860.53M816.5 219.442V263.471M816.5 219.442H860.53M816.5 263.471V307.5M816.5 263.471H860.53M816.5 307.5V351.529M816.5 307.5H860.53M816.5 351.529V395.559M816.5 351.529H860.53M816.5 395.559V439.588M816.5 395.559H860.53M816.5 439.588V483.617M816.5 439.588H860.53M816.5 483.617V527.646M816.5 483.617H860.53M816.5 527.646V571.675M816.5 527.646H860.53M816.5 571.675V615.704M816.5 571.675H860.53M816.5 615.704V659.733M816.5 615.704H860.53M816.5 659.733V703.763M816.5 659.733H860.53M816.5 703.763V747.792M816.5 703.763H860.53M816.5 747.792H860.53M860.53 -132.791V-88.7619M860.53 -132.791H904.559M860.53 -88.7619V-44.7327M860.53 -88.7619H904.559M860.53 -44.7327V-0.703609M860.53 -44.7327H904.559M860.53 -0.703609V43.3255M860.53 -0.703609H904.559M860.53 43.3255V87.3547M860.53 43.3255H904.559M860.53 87.3547V131.384M860.53 87.3547H904.559M860.53 131.384V175.413M860.53 131.384H904.559M860.53 175.413V219.442M860.53 175.413H904.559M860.53 219.442V263.471M860.53 219.442H904.559M860.53 263.471V307.5M860.53 263.471H904.559M860.53 307.5V351.529M860.53 307.5H904.559M860.53 351.529V395.559M860.53 351.529H904.559M860.53 395.559V439.588M860.53 395.559H904.559M860.53 439.588V483.617M860.53 439.588H904.559M860.53 483.617V527.646M860.53 483.617H904.559M860.53 527.646V571.675M860.53 527.646H904.559M860.53 571.675V615.704M860.53 571.675H904.559M860.53 615.704V659.733M860.53 615.704H904.559M860.53 659.733V703.763M860.53 659.733H904.559M860.53 703.763V747.792M860.53 703.763H904.559M860.53 747.792H904.559M904.559 -132.791V-88.7619M904.559 -132.791H948.588M904.559 -88.7619V-44.7327M904.559 -88.7619H948.588M904.559 -44.7327V-0.703609M904.559 -44.7327H948.588M904.559 -0.703609V43.3255M904.559 -0.703609H948.588M904.559 43.3255V87.3547M904.559 43.3255H948.588M904.559 87.3547V131.384M904.559 87.3547H948.588M904.559 131.384V175.413M904.559 131.384H948.588M904.559 175.413V219.442M904.559 175.413H948.588M904.559 219.442V263.471M904.559 219.442H948.588M904.559 263.471V307.5M904.559 263.471H948.588M904.559 307.5V351.529M904.559 307.5H948.588M904.559 351.529V395.559M904.559 351.529H948.588M904.559 395.559V439.588M904.559 395.559H948.588M904.559 439.588V483.617M904.559 439.588H948.588M904.559 483.617V527.646M904.559 483.617H948.588M904.559 527.646V571.675M904.559 527.646H948.588M904.559 571.675V615.704M904.559 571.675H948.588M904.559 615.704V659.733M904.559 615.704H948.588M904.559 659.733V703.763M904.559 659.733H948.588M904.559 703.763V747.792M904.559 703.763H948.588M904.559 747.792H948.588M948.588 -132.791V-88.7619M948.588 -132.791H992.617M948.588 -88.7619V-44.7327M948.588 -88.7619H992.617M948.588 -44.7327V-0.703609M948.588 -44.7327H992.617M948.588 -0.703609V43.3255M948.588 -0.703609H992.617M948.588 43.3255V87.3547M948.588 43.3255H992.617M948.588 87.3547V131.384M948.588 87.3547H992.617M948.588 131.384V175.413M948.588 131.384H992.617M948.588 175.413V219.442M948.588 175.413H992.617M948.588 219.442V263.471M948.588 219.442H992.617M948.588 263.471V307.5M948.588 263.471H992.617M948.588 307.5V351.529M948.588 307.5H992.617M948.588 351.529V395.559M948.588 351.529H992.617M948.588 395.559V439.588M948.588 395.559H992.617M948.588 439.588V483.617M948.588 439.588H992.617M948.588 483.617V527.646M948.588 483.617H992.617M948.588 527.646V571.675M948.588 527.646H992.617M948.588 571.675V615.704M948.588 571.675H992.617M948.588 615.704V659.733M948.588 615.704H992.617M948.588 659.733V703.763M948.588 659.733H992.617M948.588 703.763V747.792M948.588 703.763H992.617M948.588 747.792H992.617M992.617 -132.791V-88.7619M992.617 -132.791H1036.65M992.617 -88.7619V-44.7327M992.617 -88.7619H1036.65M992.617 -44.7327V-0.703609M992.617 -44.7327H1036.65M992.617 -0.703609V43.3255M992.617 -0.703609H1036.65M992.617 43.3255V87.3547M992.617 43.3255H1036.65M992.617 87.3547V131.384M992.617 87.3547H1036.65M992.617 131.384V175.413M992.617 131.384H1036.65M992.617 175.413V219.442M992.617 175.413H1036.65M992.617 219.442V263.471M992.617 219.442H1036.65M992.617 263.471V307.5M992.617 263.471H1036.65M992.617 307.5V351.529M992.617 307.5H1036.65M992.617 351.529V395.559M992.617 351.529H1036.65M992.617 395.559V439.588M992.617 395.559H1036.65M992.617 439.588V483.617M992.617 439.588H1036.65M992.617 483.617V527.646M992.617 483.617H1036.65M992.617 527.646V571.675M992.617 527.646H1036.65M992.617 571.675V615.704M992.617 571.675H1036.65M992.617 615.704V659.733M992.617 615.704H1036.65M992.617 659.733V703.763M992.617 659.733H1036.65M992.617 703.763V747.792M992.617 703.763H1036.65M992.617 747.792H1036.65M1036.65 -132.791V-88.7619M1036.65 -132.791H1080.68M1036.65 -88.7619V-44.7327M1036.65 -88.7619H1080.68M1036.65 -44.7327V-0.703609M1036.65 -44.7327H1080.68M1036.65 -0.703609V43.3255M1036.65 -0.703609H1080.68M1036.65 43.3255V87.3547M1036.65 43.3255H1080.68M1036.65 87.3547V131.384M1036.65 87.3547H1080.68M1036.65 131.384V175.413M1036.65 131.384H1080.68M1036.65 175.413V219.442M1036.65 175.413H1080.68M1036.65 219.442V263.471M1036.65 219.442H1080.68M1036.65 263.471V307.5M1036.65 263.471H1080.68M1036.65 307.5V351.529M1036.65 307.5H1080.68M1036.65 351.529V395.559M1036.65 351.529H1080.68M1036.65 395.559V439.588M1036.65 395.559H1080.68M1036.65 439.588V483.617M1036.65 439.588H1080.68M1036.65 483.617V527.646M1036.65 483.617H1080.68M1036.65 527.646V571.675M1036.65 527.646H1080.68M1036.65 571.675V615.704M1036.65 571.675H1080.68M1036.65 615.704V659.733M1036.65 615.704H1080.68M1036.65 659.733V703.763M1036.65 659.733H1080.68M1036.65 703.763V747.792M1036.65 703.763H1080.68M1036.65 747.792H1080.68M1080.68 -132.791V-88.7619M1080.68 -132.791H1124.7M1080.68 -88.7619V-44.7327M1080.68 -88.7619H1124.7M1080.68 -44.7327V-0.703609M1080.68 -44.7327H1124.7M1080.68 -0.703609V43.3255M1080.68 -0.703609H1124.7M1080.68 43.3255V87.3547M1080.68 43.3255H1124.7M1080.68 87.3547V131.384M1080.68 87.3547H1124.7M1080.68 131.384V175.413M1080.68 131.384H1124.7M1080.68 175.413V219.442M1080.68 175.413H1124.7M1080.68 219.442V263.471M1080.68 219.442H1124.7M1080.68 263.471V307.5M1080.68 263.471H1124.7M1080.68 307.5V351.529M1080.68 307.5H1124.7M1080.68 351.529V395.559M1080.68 351.529H1124.7M1080.68 395.559V439.588M1080.68 395.559H1124.7M1080.68 439.588V483.617M1080.68 439.588H1124.7M1080.68 483.617V527.646M1080.68 483.617H1124.7M1080.68 527.646V571.675M1080.68 527.646H1124.7M1080.68 571.675V615.704M1080.68 571.675H1124.7M1080.68 615.704V659.733M1080.68 615.704H1124.7M1080.68 659.733V703.763M1080.68 659.733H1124.7M1080.68 703.763V747.792M1080.68 703.763H1124.7M1080.68 747.792H1124.7M1124.7 -132.791V-88.7619M1124.7 -132.791H1168.73M1124.7 -88.7619V-44.7327M1124.7 -88.7619H1168.73M1124.7 -44.7327V-0.703609M1124.7 -44.7327H1168.73M1124.7 -0.703609V43.3255M1124.7 -0.703609H1168.73M1124.7 43.3255V87.3547M1124.7 43.3255H1168.73M1124.7 87.3547V131.384M1124.7 87.3547H1168.73M1124.7 131.384V175.413M1124.7 131.384H1168.73M1124.7 175.413V219.442M1124.7 175.413H1168.73M1124.7 219.442V263.471M1124.7 219.442H1168.73M1124.7 263.471V307.5M1124.7 263.471H1168.73M1124.7 307.5V351.529M1124.7 307.5H1168.73M1124.7 351.529V395.559M1124.7 351.529H1168.73M1124.7 395.559V439.588M1124.7 395.559H1168.73M1124.7 439.588V483.617M1124.7 439.588H1168.73M1124.7 483.617V527.646M1124.7 483.617H1168.73M1124.7 527.646V571.675M1124.7 527.646H1168.73M1124.7 571.675V615.704M1124.7 571.675H1168.73M1124.7 615.704V659.733M1124.7 615.704H1168.73M1124.7 659.733V703.763M1124.7 659.733H1168.73M1124.7 703.763V747.792M1124.7 703.763H1168.73M1124.7 747.792H1168.73M1168.73 -132.791V-88.7619M1168.73 -132.791H1212.76M1168.73 -88.7619V-44.7327M1168.73 -88.7619H1212.76M1168.73 -44.7327V-0.703609M1168.73 -44.7327H1212.76M1168.73 -0.703609V43.3255M1168.73 -0.703609H1212.76M1168.73 43.3255V87.3547M1168.73 43.3255H1212.76M1168.73 87.3547V131.384M1168.73 87.3547H1212.76M1168.73 131.384V175.413M1168.73 131.384H1212.76M1168.73 175.413V219.442M1168.73 175.413H1212.76M1168.73 219.442V263.471M1168.73 219.442H1212.76M1168.73 263.471V307.5M1168.73 263.471H1212.76M1168.73 307.5V351.529M1168.73 307.5H1212.76M1168.73 351.529V395.559M1168.73 351.529H1212.76M1168.73 395.559V439.588M1168.73 395.559H1212.76M1168.73 439.588V483.617M1168.73 439.588H1212.76M1168.73 483.617V527.646M1168.73 483.617H1212.76M1168.73 527.646V571.675M1168.73 527.646H1212.76M1168.73 571.675V615.704M1168.73 571.675H1212.76M1168.73 615.704V659.733M1168.73 615.704H1212.76M1168.73 659.733V703.763M1168.73 659.733H1212.76M1168.73 703.763V747.792M1168.73 703.763H1212.76M1168.73 747.792H1212.76M1212.76 -132.791V-88.7619M1212.76 -132.791H1256.79M1212.76 -88.7619V-44.7327M1212.76 -88.7619H1256.79M1212.76 -44.7327V-0.703609M1212.76 -44.7327H1256.79M1212.76 -0.703609V43.3255M1212.76 -0.703609H1256.79M1212.76 43.3255V87.3547M1212.76 43.3255H1256.79M1212.76 87.3547V131.384M1212.76 87.3547H1256.79M1212.76 131.384V175.413M1212.76 131.384H1256.79M1212.76 175.413V219.442M1212.76 175.413H1256.79M1212.76 219.442V263.471M1212.76 219.442H1256.79M1212.76 263.471V307.5M1212.76 263.471H1256.79M1212.76 307.5V351.529M1212.76 307.5H1256.79M1212.76 351.529V395.559M1212.76 351.529H1256.79M1212.76 395.559V439.588M1212.76 395.559H1256.79M1212.76 439.588V483.617M1212.76 439.588H1256.79M1212.76 483.617V527.646M1212.76 483.617H1256.79M1212.76 527.646V571.675M1212.76 527.646H1256.79M1212.76 571.675V615.704M1212.76 571.675H1256.79M1212.76 615.704V659.733M1212.76 615.704H1256.79M1212.76 659.733V703.763M1212.76 659.733H1256.79M1212.76 703.763V747.792M1212.76 703.763H1256.79M1212.76 747.792H1256.79M1256.79 -132.791V-88.7619M1256.79 -132.791H1300.82M1256.79 -88.7619V-44.7327M1256.79 -88.7619H1300.82M1256.79 -44.7327V-0.703609M1256.79 -44.7327H1300.82M1256.79 -0.703609V43.3255M1256.79 -0.703609H1300.82M1256.79 43.3255V87.3547M1256.79 43.3255H1300.82M1256.79 87.3547V131.384M1256.79 87.3547H1300.82M1256.79 131.384V175.413M1256.79 131.384H1300.82M1256.79 175.413V219.442M1256.79 175.413H1300.82M1256.79 219.442V263.471M1256.79 219.442H1300.82M1256.79 263.471V307.5M1256.79 263.471H1300.82M1256.79 307.5V351.529M1256.79 307.5H1300.82M1256.79 351.529V395.559M1256.79 351.529H1300.82M1256.79 395.559V439.588M1256.79 395.559H1300.82M1256.79 439.588V483.617M1256.79 439.588H1300.82M1256.79 483.617V527.646M1256.79 483.617H1300.82M1256.79 527.646V571.675M1256.79 527.646H1300.82M1256.79 571.675V615.704M1256.79 571.675H1300.82M1256.79 615.704V659.733M1256.79 615.704H1300.82M1256.79 659.733V703.763M1256.79 659.733H1300.82M1256.79 703.763V747.792M1256.79 703.763H1300.82M1256.79 747.792H1300.82M1300.82 -132.791V-88.7619M1300.82 -132.791H1344.85M1300.82 -88.7619V-44.7327M1300.82 -88.7619H1344.85M1300.82 -44.7327V-0.703609M1300.82 -44.7327H1344.85M1300.82 -0.703609V43.3255M1300.82 -0.703609H1344.85M1300.82 43.3255V87.3547M1300.82 43.3255H1344.85M1300.82 87.3547V131.384M1300.82 87.3547H1344.85M1300.82 131.384V175.413M1300.82 131.384H1344.85M1300.82 175.413V219.442M1300.82 175.413H1344.85M1300.82 219.442V263.471M1300.82 219.442H1344.85M1300.82 263.471V307.5M1300.82 263.471H1344.85M1300.82 307.5V351.529M1300.82 307.5H1344.85M1300.82 351.529V395.559M1300.82 351.529H1344.85M1300.82 395.559V439.588M1300.82 395.559H1344.85M1300.82 439.588V483.617M1300.82 439.588H1344.85M1300.82 483.617V527.646M1300.82 483.617H1344.85M1300.82 527.646V571.675M1300.82 527.646H1344.85M1300.82 571.675V615.704M1300.82 571.675H1344.85M1300.82 615.704V659.733M1300.82 615.704H1344.85M1300.82 659.733V703.763M1300.82 659.733H1344.85M1300.82 703.763V747.792M1300.82 703.763H1344.85M1300.82 747.792H1344.85M1344.85 -132.791V-88.7619M1344.85 -132.791H1388.88M1344.85 -88.7619V-44.7327M1344.85 -88.7619H1388.88M1344.85 -44.7327V-0.703609M1344.85 -44.7327H1388.88M1344.85 -0.703609V43.3255M1344.85 -0.703609H1388.88M1344.85 43.3255V87.3547M1344.85 43.3255H1388.88M1344.85 87.3547V131.384M1344.85 87.3547H1388.88M1344.85 131.384V175.413M1344.85 131.384H1388.88M1344.85 175.413V219.442M1344.85 175.413H1388.88M1344.85 219.442V263.471M1344.85 219.442H1388.88M1344.85 263.471V307.5M1344.85 263.471H1388.88M1344.85 307.5V351.529M1344.85 307.5H1388.88M1344.85 351.529V395.559M1344.85 351.529H1388.88M1344.85 395.559V439.588M1344.85 395.559H1388.88M1344.85 439.588V483.617M1344.85 439.588H1388.88M1344.85 483.617V527.646M1344.85 483.617H1388.88M1344.85 527.646V571.675M1344.85 527.646H1388.88M1344.85 571.675V615.704M1344.85 571.675H1388.88M1344.85 615.704V659.733M1344.85 615.704H1388.88M1344.85 659.733V703.763M1344.85 659.733H1388.88M1344.85 703.763V747.792M1344.85 703.763H1388.88M1344.85 747.792H1388.88M1388.88 -132.791V-88.7619M1388.88 -132.791H1432.91M1388.88 -88.7619V-44.7327M1388.88 -88.7619H1432.91M1388.88 -44.7327V-0.703609M1388.88 -44.7327H1432.91M1388.88 -0.703609V43.3255M1388.88 -0.703609H1432.91M1388.88 43.3255V87.3547M1388.88 43.3255H1432.91M1388.88 87.3547V131.384M1388.88 87.3547H1432.91M1388.88 131.384V175.413M1388.88 131.384H1432.91M1388.88 175.413V219.442M1388.88 175.413H1432.91M1388.88 219.442V263.471M1388.88 219.442H1432.91M1388.88 263.471V307.5M1388.88 263.471H1432.91M1388.88 307.5V351.529M1388.88 307.5H1432.91M1388.88 351.529V395.559M1388.88 351.529H1432.91M1388.88 395.559V439.588M1388.88 395.559H1432.91M1388.88 439.588V483.617M1388.88 439.588H1432.91M1388.88 483.617V527.646M1388.88 483.617H1432.91M1388.88 527.646V571.675M1388.88 527.646H1432.91M1388.88 571.675V615.704M1388.88 571.675H1432.91M1388.88 615.704V659.733M1388.88 615.704H1432.91M1388.88 659.733V703.763M1388.88 659.733H1432.91M1388.88 703.763V747.792M1388.88 703.763H1432.91M1388.88 747.792H1432.91M1432.91 -132.791V-88.7619M1432.91 -132.791H1476.94M1432.91 -88.7619V-44.7327M1432.91 -88.7619H1476.94M1432.91 -44.7327V-0.703609M1432.91 -44.7327H1476.94M1432.91 -0.703609V43.3255M1432.91 -0.703609H1476.94M1432.91 43.3255V87.3547M1432.91 43.3255H1476.94M1432.91 87.3547V131.384M1432.91 87.3547H1476.94M1432.91 131.384V175.413M1432.91 131.384H1476.94M1432.91 175.413V219.442M1432.91 175.413H1476.94M1432.91 219.442V263.471M1432.91 219.442H1476.94M1432.91 263.471V307.5M1432.91 263.471H1476.94M1432.91 307.5V351.529M1432.91 307.5H1476.94M1432.91 351.529V395.559M1432.91 351.529H1476.94M1432.91 395.559V439.588M1432.91 395.559H1476.94M1432.91 439.588V483.617M1432.91 439.588H1476.94M1432.91 483.617V527.646M1432.91 483.617H1476.94M1432.91 527.646V571.675M1432.91 527.646H1476.94M1432.91 571.675V615.704M1432.91 571.675H1476.94M1432.91 615.704V659.733M1432.91 615.704H1476.94M1432.91 659.733V703.763M1432.91 659.733H1476.94M1432.91 703.763V747.792M1432.91 703.763H1476.94M1432.91 747.792H1476.94M1476.94 -132.791V-88.7619M1476.94 -132.791H1520.97M1476.94 -88.7619V-44.7327M1476.94 -88.7619H1520.97M1476.94 -44.7327V-0.703609M1476.94 -44.7327H1520.97M1476.94 -0.703609V43.3255M1476.94 -0.703609H1520.97M1476.94 43.3255V87.3547M1476.94 43.3255H1520.97M1476.94 87.3547V131.384M1476.94 87.3547H1520.97M1476.94 131.384V175.413M1476.94 131.384H1520.97M1476.94 175.413V219.442M1476.94 175.413H1520.97M1476.94 219.442V263.471M1476.94 219.442H1520.97M1476.94 263.471V307.5M1476.94 263.471H1520.97M1476.94 307.5V351.529M1476.94 307.5H1520.97M1476.94 351.529V395.559M1476.94 351.529H1520.97M1476.94 395.559V439.588M1476.94 395.559H1520.97M1476.94 439.588V483.617M1476.94 439.588H1520.97M1476.94 483.617V527.646M1476.94 483.617H1520.97M1476.94 527.646V571.675M1476.94 527.646H1520.97M1476.94 571.675V615.704M1476.94 571.675H1520.97M1476.94 615.704V659.733M1476.94 615.704H1520.97M1476.94 659.733V703.763M1476.94 659.733H1520.97M1476.94 703.763V747.792M1476.94 703.763H1520.97M1476.94 747.792H1520.97M1520.97 -132.791V-88.7619M1520.97 -132.791H1565M1520.97 -88.7619V-44.7327M1520.97 -88.7619H1565M1520.97 -44.7327V-0.703609M1520.97 -44.7327H1565M1520.97 -0.703609V43.3255M1520.97 -0.703609H1565M1520.97 43.3255V87.3547M1520.97 43.3255H1565M1520.97 87.3547V131.384M1520.97 87.3547H1565M1520.97 131.384V175.413M1520.97 131.384H1565M1520.97 175.413V219.442M1520.97 175.413H1565M1520.97 219.442V263.471M1520.97 219.442H1565M1520.97 263.471V307.5M1520.97 263.471H1565M1520.97 307.5V351.529M1520.97 307.5H1565M1520.97 351.529V395.559M1520.97 351.529H1565M1520.97 395.559V439.588M1520.97 395.559H1565M1520.97 439.588V483.617M1520.97 439.588H1565M1520.97 483.617V527.646M1520.97 483.617H1565M1520.97 527.646V571.675M1520.97 527.646H1565M1520.97 571.675V615.704M1520.97 571.675H1565M1520.97 615.704V659.733M1520.97 615.704H1565M1520.97 659.733V703.763M1520.97 659.733H1565M1520.97 703.763V747.792M1520.97 703.763H1565M1520.97 747.792H1565M1565 -132.791V-88.7619M1565 -132.791H1609.03M1565 -88.7619V-44.7327M1565 -88.7619H1609.03M1565 -44.7327V-0.703609M1565 -44.7327H1609.03M1565 -0.703609V43.3255M1565 -0.703609H1609.03M1565 43.3255V87.3547M1565 43.3255H1609.03M1565 87.3547V131.384M1565 87.3547H1609.03M1565 131.384V175.413M1565 131.384H1609.03M1565 175.413V219.442M1565 175.413H1609.03M1565 219.442V263.471M1565 219.442H1609.03M1565 263.471V307.5M1565 263.471H1609.03M1565 307.5V351.529M1565 307.5H1609.03M1565 351.529V395.559M1565 351.529H1609.03M1565 395.559V439.588M1565 395.559H1609.03M1565 439.588V483.617M1565 439.588H1609.03M1565 483.617V527.646M1565 483.617H1609.03M1565 527.646V571.675M1565 527.646H1609.03M1565 571.675V615.704M1565 571.675H1609.03M1565 615.704V659.733M1565 615.704H1609.03M1565 659.733V703.763M1565 659.733H1609.03M1565 703.763V747.792M1565 703.763H1609.03M1565 747.792H1609.03M1609.03 -132.791V-88.7619M1609.03 -132.791H1653.05M1609.03 -88.7619V-44.7327M1609.03 -88.7619H1653.05M1609.03 -44.7327V-0.703609M1609.03 -44.7327H1653.05M1609.03 -0.703609V43.3255M1609.03 -0.703609H1653.05M1609.03 43.3255V87.3547M1609.03 43.3255H1653.05M1609.03 87.3547V131.384M1609.03 87.3547H1653.05M1609.03 131.384V175.413M1609.03 131.384H1653.05M1609.03 175.413V219.442M1609.03 175.413H1653.05M1609.03 219.442V263.471M1609.03 219.442H1653.05M1609.03 263.471V307.5M1609.03 263.471H1653.05M1609.03 307.5V351.529M1609.03 307.5H1653.05M1609.03 351.529V395.559M1609.03 351.529H1653.05M1609.03 395.559V439.588M1609.03 395.559H1653.05M1609.03 439.588V483.617M1609.03 439.588H1653.05M1609.03 483.617V527.646M1609.03 483.617H1653.05M1609.03 527.646V571.675M1609.03 527.646H1653.05M1609.03 571.675V615.704M1609.03 571.675H1653.05M1609.03 615.704V659.733M1609.03 615.704H1653.05M1609.03 659.733V703.763M1609.03 659.733H1653.05M1609.03 703.763V747.792M1609.03 703.763H1653.05M1609.03 747.792H1653.05M1653.05 -132.791V-88.7619M1653.05 -132.791H1697.08M1653.05 -88.7619V-44.7327M1653.05 -88.7619H1697.08M1653.05 -44.7327V-0.703609M1653.05 -44.7327H1697.08M1653.05 -0.703609V43.3255M1653.05 -0.703609H1697.08M1653.05 43.3255V87.3547M1653.05 43.3255H1697.08M1653.05 87.3547V131.384M1653.05 87.3547H1697.08M1653.05 131.384V175.413M1653.05 131.384H1697.08M1653.05 175.413V219.442M1653.05 175.413H1697.08M1653.05 219.442V263.471M1653.05 219.442H1697.08M1653.05 263.471V307.5M1653.05 263.471H1697.08M1653.05 307.5V351.529M1653.05 307.5H1697.08M1653.05 351.529V395.559M1653.05 351.529H1697.08M1653.05 395.559V439.588M1653.05 395.559H1697.08M1653.05 439.588V483.617M1653.05 439.588H1697.08M1653.05 483.617V527.646M1653.05 483.617H1697.08M1653.05 527.646V571.675M1653.05 527.646H1697.08M1653.05 571.675V615.704M1653.05 571.675H1697.08M1653.05 615.704V659.733M1653.05 615.704H1697.08M1653.05 659.733V703.763M1653.05 659.733H1697.08M1653.05 703.763V747.792M1653.05 703.763H1697.08M1653.05 747.792H1697.08M1697.08 -132.791V-88.7619M1697.08 -132.791H1741.11M1697.08 -88.7619V-44.7327M1697.08 -88.7619H1741.11M1697.08 -44.7327V-0.703609M1697.08 -44.7327H1741.11M1697.08 -0.703609V43.3255M1697.08 -0.703609H1741.11M1697.08 43.3255V87.3547M1697.08 43.3255H1741.11M1697.08 87.3547V131.384M1697.08 87.3547H1741.11M1697.08 131.384V175.413M1697.08 131.384H1741.11M1697.08 175.413V219.442M1697.08 175.413H1741.11M1697.08 219.442V263.471M1697.08 219.442H1741.11M1697.08 263.471V307.5M1697.08 263.471H1741.11M1697.08 307.5V351.529M1697.08 307.5H1741.11M1697.08 351.529V395.559M1697.08 351.529H1741.11M1697.08 395.559V439.588M1697.08 395.559H1741.11M1697.08 439.588V483.617M1697.08 439.588H1741.11M1697.08 483.617V527.646M1697.08 483.617H1741.11M1697.08 527.646V571.675M1697.08 527.646H1741.11M1697.08 571.675V615.704M1697.08 571.675H1741.11M1697.08 615.704V659.733M1697.08 615.704H1741.11M1697.08 659.733V703.763M1697.08 659.733H1741.11M1697.08 703.763V747.792M1697.08 703.763H1741.11M1697.08 747.792H1741.11M1741.11 -132.791V-88.7619M1741.11 -132.791H1785.14M1741.11 -88.7619V-44.7327M1741.11 -88.7619H1785.14M1741.11 -44.7327V-0.703609M1741.11 -44.7327H1785.14M1741.11 -0.703609V43.3255M1741.11 -0.703609H1785.14M1741.11 43.3255V87.3547M1741.11 43.3255H1785.14M1741.11 87.3547V131.384M1741.11 87.3547H1785.14M1741.11 131.384V175.413M1741.11 131.384H1785.14M1741.11 175.413V219.442M1741.11 175.413H1785.14M1741.11 219.442V263.471M1741.11 219.442H1785.14M1741.11 263.471V307.5M1741.11 263.471H1785.14M1741.11 307.5V351.529M1741.11 307.5H1785.14M1741.11 351.529V395.559M1741.11 351.529H1785.14M1741.11 395.559V439.588M1741.11 395.559H1785.14M1741.11 439.588V483.617M1741.11 439.588H1785.14M1741.11 483.617V527.646M1741.11 483.617H1785.14M1741.11 527.646V571.675M1741.11 527.646H1785.14M1741.11 571.675V615.704M1741.11 571.675H1785.14M1741.11 615.704V659.733M1741.11 615.704H1785.14M1741.11 659.733V703.763M1741.11 659.733H1785.14M1741.11 703.763V747.792M1741.11 703.763H1785.14M1741.11 747.792H1785.14M1785.14 -132.791V-88.7619M1785.14 -132.791H1829.17M1785.14 -88.7619V-44.7327M1785.14 -88.7619H1829.17M1785.14 -44.7327V-0.703609M1785.14 -44.7327H1829.17M1785.14 -0.703609V43.3255M1785.14 -0.703609H1829.17M1785.14 43.3255V87.3547M1785.14 43.3255H1829.17M1785.14 87.3547V131.384M1785.14 87.3547H1829.17M1785.14 131.384V175.413M1785.14 131.384H1829.17M1785.14 175.413V219.442M1785.14 175.413H1829.17M1785.14 219.442V263.471M1785.14 219.442H1829.17M1785.14 263.471V307.5M1785.14 263.471H1829.17M1785.14 307.5V351.529M1785.14 307.5H1829.17M1785.14 351.529V395.559M1785.14 351.529H1829.17M1785.14 395.559V439.588M1785.14 395.559H1829.17M1785.14 439.588V483.617M1785.14 439.588H1829.17M1785.14 483.617V527.646M1785.14 483.617H1829.17M1785.14 527.646V571.675M1785.14 527.646H1829.17M1785.14 571.675V615.704M1785.14 571.675H1829.17M1785.14 615.704V659.733M1785.14 615.704H1829.17M1785.14 659.733V703.763M1785.14 659.733H1829.17M1785.14 703.763V747.792M1785.14 703.763H1829.17M1785.14 747.792H1829.17M1829.17 -132.791V-88.7619M1829.17 -132.791H1873.2M1829.17 -88.7619V-44.7327M1829.17 -88.7619H1873.2M1829.17 -44.7327V-0.703609M1829.17 -44.7327H1873.2M1829.17 -0.703609V43.3255M1829.17 -0.703609H1873.2M1829.17 43.3255V87.3547M1829.17 43.3255H1873.2M1829.17 87.3547V131.384M1829.17 87.3547H1873.2M1829.17 131.384V175.413M1829.17 131.384H1873.2M1829.17 175.413V219.442M1829.17 175.413H1873.2M1829.17 219.442V263.471M1829.17 219.442H1873.2M1829.17 263.471V307.5M1829.17 263.471H1873.2M1829.17 307.5V351.529M1829.17 307.5H1873.2M1829.17 351.529V395.559M1829.17 351.529H1873.2M1829.17 395.559V439.588M1829.17 395.559H1873.2M1829.17 439.588V483.617M1829.17 439.588H1873.2M1829.17 483.617V527.646M1829.17 483.617H1873.2M1829.17 527.646V571.675M1829.17 527.646H1873.2M1829.17 571.675V615.704M1829.17 571.675H1873.2M1829.17 615.704V659.733M1829.17 615.704H1873.2M1829.17 659.733V703.763M1829.17 659.733H1873.2M1829.17 703.763V747.792M1829.17 703.763H1873.2M1829.17 747.792H1873.2M1873.2 -132.791V-88.7619M1873.2 -132.791H1917.23M1873.2 -88.7619V-44.7327M1873.2 -88.7619H1917.23M1873.2 -44.7327V-0.703609M1873.2 -44.7327H1917.23M1873.2 -0.703609V43.3255M1873.2 -0.703609H1917.23M1873.2 43.3255V87.3547M1873.2 43.3255H1917.23M1873.2 87.3547V131.384M1873.2 87.3547H1917.23M1873.2 131.384V175.413M1873.2 131.384H1917.23M1873.2 175.413V219.442M1873.2 175.413H1917.23M1873.2 219.442V263.471M1873.2 219.442H1917.23M1873.2 263.471V307.5M1873.2 263.471H1917.23M1873.2 307.5V351.529M1873.2 307.5H1917.23M1873.2 351.529V395.559M1873.2 351.529H1917.23M1873.2 395.559V439.588M1873.2 395.559H1917.23M1873.2 439.588V483.617M1873.2 439.588H1917.23M1873.2 483.617V527.646M1873.2 483.617H1917.23M1873.2 527.646V571.675M1873.2 527.646H1917.23M1873.2 571.675V615.704M1873.2 571.675H1917.23M1873.2 615.704V659.733M1873.2 615.704H1917.23M1873.2 659.733V703.763M1873.2 659.733H1917.23M1873.2 703.763V747.792M1873.2 703.763H1917.23M1873.2 747.792H1917.23M1917.23 -132.791V-88.7619M1917.23 -132.791H1961.26M1917.23 -88.7619V-44.7327M1917.23 -88.7619H1961.26M1917.23 -44.7327V-0.703609M1917.23 -44.7327H1961.26M1917.23 -0.703609V43.3255M1917.23 -0.703609H1961.26M1917.23 43.3255V87.3547M1917.23 43.3255H1961.26M1917.23 87.3547V131.384M1917.23 87.3547H1961.26M1917.23 131.384V175.413M1917.23 131.384H1961.26M1917.23 175.413V219.442M1917.23 175.413H1961.26M1917.23 219.442V263.471M1917.23 219.442H1961.26M1917.23 263.471V307.5M1917.23 263.471H1961.26M1917.23 307.5V351.529M1917.23 307.5H1961.26M1917.23 351.529V395.559M1917.23 351.529H1961.26M1917.23 395.559V439.588M1917.23 395.559H1961.26M1917.23 439.588V483.617M1917.23 439.588H1961.26M1917.23 483.617V527.646M1917.23 483.617H1961.26M1917.23 527.646V571.675M1917.23 527.646H1961.26M1917.23 571.675V615.704M1917.23 571.675H1961.26M1917.23 615.704V659.733M1917.23 615.704H1961.26M1917.23 659.733V703.763M1917.23 659.733H1961.26M1917.23 703.763V747.792M1917.23 703.763H1961.26M1917.23 747.792H1961.26M1961.26 -132.791V-88.7619M1961.26 -132.791H2005.29M1961.26 -88.7619V-44.7327M1961.26 -88.7619H2005.29M1961.26 -44.7327V-0.703609M1961.26 -44.7327H2005.29M1961.26 -0.703609V43.3255M1961.26 -0.703609H2005.29M1961.26 43.3255V87.3547M1961.26 43.3255H2005.29M1961.26 87.3547V131.384M1961.26 87.3547H2005.29M1961.26 131.384V175.413M1961.26 131.384H2005.29M1961.26 175.413V219.442M1961.26 175.413H2005.29M1961.26 219.442V263.471M1961.26 219.442H2005.29M1961.26 263.471V307.5M1961.26 263.471H2005.29M1961.26 307.5V351.529M1961.26 307.5H2005.29M1961.26 351.529V395.559M1961.26 351.529H2005.29M1961.26 395.559V439.588M1961.26 395.559H2005.29M1961.26 439.588V483.617M1961.26 439.588H2005.29M1961.26 483.617V527.646M1961.26 483.617H2005.29M1961.26 527.646V571.675M1961.26 527.646H2005.29M1961.26 571.675V615.704M1961.26 571.675H2005.29M1961.26 615.704V659.733M1961.26 615.704H2005.29M1961.26 659.733V703.763M1961.26 659.733H2005.29M1961.26 703.763V747.792M1961.26 703.763H2005.29M1961.26 747.792H2005.29M2005.29 -132.791V-88.7619M2005.29 -132.791H2049.32M2005.29 -88.7619V-44.7327M2005.29 -88.7619H2049.32M2005.29 -44.7327V-0.703609M2005.29 -44.7327H2049.32M2005.29 -0.703609V43.3255M2005.29 -0.703609H2049.32M2005.29 43.3255V87.3547M2005.29 43.3255H2049.32M2005.29 87.3547V131.384M2005.29 87.3547H2049.32M2005.29 131.384V175.413M2005.29 131.384H2049.32M2005.29 175.413V219.442M2005.29 175.413H2049.32M2005.29 219.442V263.471M2005.29 219.442H2049.32M2005.29 263.471V307.5M2005.29 263.471H2049.32M2005.29 307.5V351.529M2005.29 307.5H2049.32M2005.29 351.529V395.559M2005.29 351.529H2049.32M2005.29 395.559V439.588M2005.29 395.559H2049.32M2005.29 439.588V483.617M2005.29 439.588H2049.32M2005.29 483.617V527.646M2005.29 483.617H2049.32M2005.29 527.646V571.675M2005.29 527.646H2049.32M2005.29 571.675V615.704M2005.29 571.675H2049.32M2005.29 615.704V659.733M2005.29 615.704H2049.32M2005.29 659.733V703.763M2005.29 659.733H2049.32M2005.29 703.763V747.792M2005.29 703.763H2049.32M2005.29 747.792H2049.32M2049.32 -132.791V-88.7619M2049.32 -132.791H2093.35M2049.32 -88.7619V-44.7327M2049.32 -88.7619H2093.35M2049.32 -44.7327V-0.703609M2049.32 -44.7327H2093.35M2049.32 -0.703609V43.3255M2049.32 -0.703609H2093.35M2049.32 43.3255V87.3547M2049.32 43.3255H2093.35M2049.32 87.3547V131.384M2049.32 87.3547H2093.35M2049.32 131.384V175.413M2049.32 131.384H2093.35M2049.32 175.413V219.442M2049.32 175.413H2093.35M2049.32 219.442V263.471M2049.32 219.442H2093.35M2049.32 263.471V307.5M2049.32 263.471H2093.35M2049.32 307.5V351.529M2049.32 307.5H2093.35M2049.32 351.529V395.559M2049.32 351.529H2093.35M2049.32 395.559V439.588M2049.32 395.559H2093.35M2049.32 439.588V483.617M2049.32 439.588H2093.35M2049.32 483.617V527.646M2049.32 483.617H2093.35M2049.32 527.646V571.675M2049.32 527.646H2093.35M2049.32 571.675V615.704M2049.32 571.675H2093.35M2049.32 615.704V659.733M2049.32 615.704H2093.35M2049.32 659.733V703.763M2049.32 659.733H2093.35M2049.32 703.763V747.792M2049.32 703.763H2093.35M2049.32 747.792H2093.35M2093.35 -132.791V-88.7619M2093.35 -132.791H2137.37M2093.35 -88.7619V-44.7327M2093.35 -88.7619H2137.37M2093.35 -44.7327V-0.703609M2093.35 -44.7327H2137.37M2093.35 -0.703609V43.3255M2093.35 -0.703609H2137.37M2093.35 43.3255V87.3547M2093.35 43.3255H2137.37M2093.35 87.3547V131.384M2093.35 87.3547H2137.37M2093.35 131.384V175.413M2093.35 131.384H2137.37M2093.35 175.413V219.442M2093.35 175.413H2137.37M2093.35 219.442V263.471M2093.35 219.442H2137.37M2093.35 263.471V307.5M2093.35 263.471H2137.37M2093.35 307.5V351.529M2093.35 307.5H2137.37M2093.35 351.529V395.559M2093.35 351.529H2137.37M2093.35 395.559V439.588M2093.35 395.559H2137.37M2093.35 439.588V483.617M2093.35 439.588H2137.37M2093.35 483.617V527.646M2093.35 483.617H2137.37M2093.35 527.646V571.675M2093.35 527.646H2137.37M2093.35 571.675V615.704M2093.35 571.675H2137.37M2093.35 615.704V659.733M2093.35 615.704H2137.37M2093.35 659.733V703.763M2093.35 659.733H2137.37M2093.35 703.763V747.792M2093.35 703.763H2137.37M2093.35 747.792H2137.37M2137.37 -132.791V-88.7619M2137.37 -132.791H2181.4M2137.37 -88.7619V-44.7327M2137.37 -88.7619H2181.4M2137.37 -44.7327V-0.703609M2137.37 -44.7327H2181.4M2137.37 -0.703609V43.3255M2137.37 -0.703609H2181.4M2137.37 43.3255V87.3547M2137.37 43.3255H2181.4M2137.37 87.3547V131.384M2137.37 87.3547H2181.4M2137.37 131.384V175.413M2137.37 131.384H2181.4M2137.37 175.413V219.442M2137.37 175.413H2181.4M2137.37 219.442V263.471M2137.37 219.442H2181.4M2137.37 263.471V307.5M2137.37 263.471H2181.4M2137.37 307.5V351.529M2137.37 307.5H2181.4M2137.37 351.529V395.559M2137.37 351.529H2181.4M2137.37 395.559V439.588M2137.37 395.559H2181.4M2137.37 439.588V483.617M2137.37 439.588H2181.4M2137.37 483.617V527.646M2137.37 483.617H2181.4M2137.37 527.646V571.675M2137.37 527.646H2181.4M2137.37 571.675V615.704M2137.37 571.675H2181.4M2137.37 615.704V659.733M2137.37 615.704H2181.4M2137.37 659.733V703.763M2137.37 659.733H2181.4M2137.37 703.763V747.792M2137.37 703.763H2181.4M2137.37 747.792H2181.4M2181.4 -132.791V-88.7619M2181.4 -132.791H2225.43M2181.4 -88.7619V-44.7327M2181.4 -88.7619H2225.43M2181.4 -44.7327V-0.703609M2181.4 -44.7327H2225.43M2181.4 -0.703609V43.3255M2181.4 -0.703609H2225.43M2181.4 43.3255V87.3547M2181.4 43.3255H2225.43M2181.4 87.3547V131.384M2181.4 87.3547H2225.43M2181.4 131.384V175.413M2181.4 131.384H2225.43M2181.4 175.413V219.442M2181.4 175.413H2225.43M2181.4 219.442V263.471M2181.4 219.442H2225.43M2181.4 263.471V307.5M2181.4 263.471H2225.43M2181.4 307.5V351.529M2181.4 307.5H2225.43M2181.4 351.529V395.559M2181.4 351.529H2225.43M2181.4 395.559V439.588M2181.4 395.559H2225.43M2181.4 439.588V483.617M2181.4 439.588H2225.43M2181.4 483.617V527.646M2181.4 483.617H2225.43M2181.4 527.646V571.675M2181.4 527.646H2225.43M2181.4 571.675V615.704M2181.4 571.675H2225.43M2181.4 615.704V659.733M2181.4 615.704H2225.43M2181.4 659.733V703.763M2181.4 659.733H2225.43M2181.4 703.763V747.792M2181.4 703.763H2225.43M2181.4 747.792H2225.43M2225.43 -132.791V-88.7619M2225.43 -132.791H2269.46M2225.43 -88.7619V-44.7327M2225.43 -88.7619H2269.46M2225.43 -44.7327V-0.703609M2225.43 -44.7327H2269.46M2225.43 -0.703609V43.3255M2225.43 -0.703609H2269.46M2225.43 43.3255V87.3547M2225.43 43.3255H2269.46M2225.43 87.3547V131.384M2225.43 87.3547H2269.46M2225.43 131.384V175.413M2225.43 131.384H2269.46M2225.43 175.413V219.442M2225.43 175.413H2269.46M2225.43 219.442V263.471M2225.43 219.442H2269.46M2225.43 263.471V307.5M2225.43 263.471H2269.46M2225.43 307.5V351.529M2225.43 307.5H2269.46M2225.43 351.529V395.559M2225.43 351.529H2269.46M2225.43 395.559V439.588M2225.43 395.559H2269.46M2225.43 439.588V483.617M2225.43 439.588H2269.46M2225.43 483.617V527.646M2225.43 483.617H2269.46M2225.43 527.646V571.675M2225.43 527.646H2269.46M2225.43 571.675V615.704M2225.43 571.675H2269.46M2225.43 615.704V659.733M2225.43 615.704H2269.46M2225.43 659.733V703.763M2225.43 659.733H2269.46M2225.43 703.763V747.792M2225.43 703.763H2269.46M2225.43 747.792H2269.46M2269.46 -132.791V-88.7619M2269.46 -132.791H2313.49V-88.7619M2269.46 -88.7619V-44.7327M2269.46 -88.7619H2313.49M2269.46 -44.7327V-0.703609M2269.46 -44.7327H2313.49M2269.46 -0.703609V43.3255M2269.46 -0.703609H2313.49M2269.46 43.3255V87.3547M2269.46 43.3255H2313.49M2269.46 87.3547V131.384M2269.46 87.3547H2313.49M2269.46 131.384V175.413M2269.46 131.384H2313.49M2269.46 175.413V219.442M2269.46 175.413H2313.49M2269.46 219.442V263.471M2269.46 219.442H2313.49M2269.46 263.471V307.5M2269.46 263.471H2313.49M2269.46 307.5V351.529M2269.46 307.5H2313.49M2269.46 351.529V395.559M2269.46 351.529H2313.49M2269.46 395.559V439.588M2269.46 395.559H2313.49M2269.46 439.588V483.617M2269.46 439.588H2313.49M2269.46 483.617V527.646M2269.46 483.617H2313.49M2269.46 527.646V571.675M2269.46 527.646H2313.49M2269.46 571.675V615.704M2269.46 571.675H2313.49M2269.46 615.704V659.733M2269.46 615.704H2313.49M2269.46 659.733V703.763M2269.46 659.733H2313.49M2269.46 703.763V747.792M2269.46 703.763H2313.49M2269.46 747.792H2313.49V703.763M2313.49 -88.7619V-44.7327M2313.49 -44.7327V-0.703609M2313.49 -0.703609V43.3255M2313.49 43.3255V87.3547M2313.49 87.3547V131.384M2313.49 131.384V175.413M2313.49 175.413V219.442M2313.49 219.442V263.471M2313.49 263.471V307.5M2313.49 307.5V351.529M2313.49 351.529V395.559M2313.49 395.559V439.588M2313.49 439.588V483.617M2313.49 483.617V527.646M2313.49 527.646V571.675M2313.49 571.675V615.704M2313.49 615.704V659.733M2313.49 659.733V703.763" stroke="url(#paint1_radial_1466_9554)" stroke-width="0.8"/>
</g>
</g>
<defs>
<radialGradient id="paint0_radial_1466_9554" cx="0" cy="0" r="1" gradientUnits="userSpaceOnUse" gradientTransform="translate(1344.85 307.5) rotate(90) scale(453.5 792.861)">
<stop offset="0.665789" stop-color="white"/>
<stop offset="1" stop-color="white" stop-opacity="0.2"/>
</radialGradient>
<radialGradient id="paint1_radial_1466_9554" cx="0" cy="0" r="1" gradientUnits="userSpaceOnUse" gradientTransform="translate(1344.85 279.341) rotate(90) scale(497.408 883.664)">
<stop offset="0.665789" stop-color="white"/>
<stop offset="1" stop-color="white" stop-opacity="0.2"/>
</radialGradient>
<clipPath id="clip0_1466_9554">
<rect width="2400" height="764" fill="white"/>
</clipPath>
</defs>
</svg>
